<?xml version="1.0" encoding="utf-8"?>
<!-- Generator: Adobe Illustrator 28.0.0, SVG Export Plug-In . SVG Version: 6.00 Build 0)  -->
<svg version="1.1" id="Layer_3" xmlns="http://www.w3.org/2000/svg" xmlns:xlink="http://www.w3.org/1999/xlink" x="0px" y="0px"
	 viewBox="0 0 356.95 205.6" style="enable-background:new 0 0 356.95 205.6;" xml:space="preserve">
<style type="text/css">
	.st0{fill:#BBBCBC;}
	.st1{fill:#B90066;}
</style>
<g>
	<path class="st0" d="M232.24,49.18h-20.07L183.82,125h20.28l4.78-13.59h26.44l4.67,13.59h20.6L232.24,49.18z M213.45,96.76
		l8.6-26.55h0.21l8.39,26.55H213.45z"/>
	<path class="st0" d="M77.53,49.18H12.55v16.99h22.62V125h19.75V66.17h18.44c1.18-2.25,2.58-4.33,4.17-6.24V49.18z"/>
	<g>
		<path class="st0" d="M138.41,66.17h-4.17v-6.24c-6.36-7.61-15.95-12.34-28.35-12.34c-12.4,0-21.99,4.73-28.35,12.34v6.24h-4.17
			c-3.19,6.05-4.85,13.21-4.85,20.92c0,21.98,13.49,39.5,37.38,39.5c23.89,0,37.38-17.52,37.38-39.5
			C143.26,79.38,141.59,72.22,138.41,66.17z M105.88,109.6c-12.74,0-17.63-11.26-17.63-22.51c0-11.26,4.88-22.51,17.63-22.51
			s17.63,11.26,17.63,22.51C123.51,98.35,118.62,109.6,105.88,109.6z"/>
	</g>
	<path class="st0" d="M77.53,59.93c-1.6,1.91-2.99,4-4.17,6.24h4.17V59.93z"/>
	<path class="st0" d="M176.6,125V66.17h22.62V49.18h-64.99v10.75c1.6,1.91,2.99,4,4.17,6.24h18.44V125H176.6z"/>
	<path class="st0" d="M134.23,66.17h4.17c-1.18-2.25-2.58-4.33-4.17-6.24V66.17z"/>
	<polygon class="st0" points="312.94,108.01 277.58,108.01 277.58,49.18 257.83,49.18 257.83,125 312.94,125 	"/>
	<path class="st1" d="M92.63,160.1c-0.18,0.09-0.37,0.05-0.55-0.14c0,0.19,0.27,0.27,0.82,0.27
		C92.91,160.06,92.81,160.01,92.63,160.1z"/>
	<path class="st1" d="M30.74,195.9c-0.09-0.09-0.14,0.04-0.14,0.41C30.78,196.13,30.83,195.99,30.74,195.9z"/>
	<path class="st1" d="M80.34,168.44c-0.37,0-0.91,0.37-1.64,1.09C79.97,169.53,80.52,169.17,80.34,168.44z"/>
	<path class="st1" d="M84.71,164.34c-0.91,0-1.19,0.18-0.82,0.55C84.25,165.25,84.52,165.07,84.71,164.34z"/>
	<path class="st1" d="M81.7,168.44c0.36,0,0.45-0.04,0.27-0.14C81.79,168.21,81.7,168.26,81.7,168.44z"/>
	<path class="st1" d="M81.16,169.12c0.18,0.09,0.27-0.04,0.27-0.41C81.06,168.89,80.97,169.03,81.16,169.12z"/>
	<path class="st1" d="M81.16,166.8c-0.73,0-1.28,0.46-1.64,1.37c0.36,0,0.64-0.14,0.82-0.41C80.52,167.48,80.79,167.17,81.16,166.8z
		"/>
	<path class="st1" d="M80.34,168.44c0.36-0.18,0.45-0.27,0.27-0.27C80.42,168.16,80.34,168.26,80.34,168.44z"/>
	<path class="st1" d="M78.42,168.71c0.36,0,0.73-0.18,1.09-0.55C78.78,168.16,78.42,168.35,78.42,168.71z"/>
	<path class="st1" d="M84.98,164.07c-0.18,0-0.27,0.09-0.27,0.27C84.89,164.52,84.98,164.43,84.98,164.07z"/>
	<path class="st1" d="M85.53,163.93c-0.37-0.45-0.55-0.41-0.55,0.14C85.71,164.43,85.89,164.39,85.53,163.93z"/>
	<path class="st1" d="M81.43,168.71c0.18,0,0.27-0.09,0.27-0.27C81.52,168.44,81.43,168.53,81.43,168.71z"/>
	<path class="st1" d="M84.3,167.62c0.27,0.37,0.14,0.73-0.41,1.09c0.55,0,0.86-0.18,0.96-0.55c0.09-0.36,0.23-0.73,0.41-1.09
		C84.34,167.07,84.03,167.26,84.3,167.62z"/>
	<path class="st1" d="M92.09,161.88c-0.19,0-0.27,0.18-0.27,0.55C91.99,162.43,92.09,162.25,92.09,161.88z"/>
	<path class="st1" d="M96.46,154.64c0.36-0.27,0.18-0.41-0.55-0.41C95.91,154.78,96.09,154.91,96.46,154.64z"/>
	<path class="st1" d="M79.79,165.7c-0.37-0.36-0.64-0.18-0.82,0.55C79.88,166.25,80.15,166.07,79.79,165.7z"/>
	<path class="st1" d="M91.81,162.43c-0.73-0.18-0.91-0.09-0.55,0.27C91.63,163.07,91.81,162.97,91.81,162.43z"/>
	<path class="st1" d="M98.37,158.33c0.11,0.03,0.18,0.04,0.26,0.05c0.07-0.13,0.14-0.25,0.21-0.38
		C98.53,157.72,98.37,157.82,98.37,158.33z"/>
	<path class="st1" d="M85.39,166.12c0.09,0.09,0.14-0.04,0.14-0.41C85.34,165.89,85.3,166.02,85.39,166.12z"/>
	<path class="st1" d="M0.27,178c0,0.18,0.18,0.18,0.55,0v-0.27C0.46,177.73,0.27,177.82,0.27,178z"/>
	<path class="st1" d="M78.7,171.44c0.18-0.36,0.18-0.59,0-0.68c-0.18-0.09-0.37-0.31-0.55-0.68v0.82
		C78.33,171.27,78.51,171.44,78.7,171.44z"/>
	<path class="st1" d="M109.03,143.16c-0.19-0.09-0.19,0.05,0,0.41C109.21,143.39,109.21,143.26,109.03,143.16z"/>
	<path class="st1" d="M90.17,162.43c0.18,0,0.27-0.18,0.27-0.55C90.26,161.88,90.17,162.06,90.17,162.43z"/>
	<path class="st1" d="M90.45,161.61v0.27c0.18,0.18,0.45,0.09,0.82-0.27H90.45z"/>
	<path class="st1" d="M89.9,162.56c0.18,0.09,0.27,0.05,0.27-0.14C89.81,162.43,89.72,162.47,89.9,162.56z"/>
	<path class="st1" d="M91.68,160.92c0.64,0.46,1.05,0.23,1.23-0.68c-0.55,0-0.82-0.09-0.82-0.27c0.18,0.19,0.36,0.23,0.55,0.14
		c0.18-0.09,0.27-0.04,0.27,0.14c0.91-0.36,1.77-0.82,2.59-1.37c0.82-0.55,1.68-1.18,2.6-1.91c-2.01,0.55-3.78,1.32-5.33,2.32
		c-1.55,1-3.05,2.05-4.51,3.14c0.55,0,0.91-0.18,1.09-0.55c0.18-0.36,0.55-0.45,1.09-0.27C90.62,160.7,91.04,160.47,91.68,160.92z"
		/>
	<path class="st1" d="M92.36,161.74c-0.18-0.09-0.27-0.04-0.27,0.14C92.45,161.88,92.54,161.84,92.36,161.74z"/>
	<path class="st1" d="M109.03,143.57c-0.55-0.91-0.37-1.64,0.55-2.19c0.91-0.55,1-1.27,0.27-2.19c-6.93,4.19-13.62,8.47-20.09,12.84
		c-6.47,4.37-13.03,8.65-19.67,12.84c-6.65,4.19-13.53,8.11-20.63,11.75c-7.1,3.65-14.76,6.83-22.95,9.56
		c-2,0.91-4.14,1.73-6.42,2.46c-2.27,0.73-5.06,0.82-8.33,0.27c-0.36-0.36-0.82-0.82-1.37-1.37c-0.55-0.55-0.91-1.27-1.09-2.19
		c0.91-6.19,2.51-11.61,4.78-16.26c2.28-4.64,5.05-8.79,8.33-12.43c3.28-3.64,6.83-6.87,10.66-9.7c3.82-2.82,7.83-5.6,12.02-8.33
		c0.36,0.91,0.45,1.77,0.27,2.59c-0.18,0.82,0,1.69,0.55,2.6c3.1,0.37,5.24-0.55,6.42-2.73c1.18-2.19,2.14-4.64,2.87-7.38
		c-0.18-0.18-0.55-0.73-1.09-1.64c-0.91-0.91-2.01-1.68-3.28-2.32c-1.28-0.63-2.64-1.23-4.1-1.77c-2.73-0.36-4.96-0.32-6.69,0.13
		c-1.73,0.46-3.51,0.87-5.33,1.23c-3.65,3.1-7.24,6.24-10.79,9.43c-3.55,3.19-6.87,6.65-9.97,10.39c-3.1,3.74-5.88,7.83-8.33,12.29
		c-2.46,4.47-4.32,9.52-5.6,15.17c0.18,0.18,0.32,0.37,0.41,0.55c0.09,0.19,0.23,0.37,0.41,0.55V178c-0.36,4.74,0.78,8.84,3.42,12.3
		c2.64,3.46,6.06,6.1,10.25,7.92c0.37-0.37,0.73-0.59,1.09-0.68c0.37-0.09,0.64-0.32,0.82-0.68c0.37,0.36,1.23,0.68,2.59,0.96
		c1.37,0.27,2.78,0.41,4.24,0.41c1.46,0,2.91-0.14,4.37-0.41c1.46-0.27,2.46-0.78,3.01-1.5c0-0.37,0.04-0.5,0.14-0.41
		c0.09,0.09,0.04,0.23-0.14,0.41c0,0.18,0.18,0.27,0.55,0.27c1.64-1.09,3.51-2,5.6-2.73c2.09-0.73,4.14-1.55,6.15-2.46
		c2.73-0.36,5.83-1.37,9.29-3.01c3.46-1.64,6.28-3.19,8.47-4.64c0.55-0.36,0.45-0.77-0.27-1.23c-0.73-0.45-0.73-0.86,0-1.23
		c0.36,0.91,0.91,1.09,1.64,0.55c0.72-0.55,1.37-0.63,1.91-0.27c-0.18-0.36-0.37-0.68-0.55-0.96c-0.18-0.27,0-0.5,0.55-0.68
		c0.73,0.18,0.91,0.55,0.55,1.09c-0.37,0.55-0.19,0.73,0.55,0.55c0.55,0,0.77-0.36,0.68-1.09c-0.09-0.73-0.32-1.09-0.68-1.09
		c0.55,0.19,1.23,0.05,2.05-0.41c0.82-0.45,1.41-0.41,1.78,0.14c0.53-1.07,1.31-1.98,2.29-2.76c-0.2-0.03-0.31-0.1-0.24-0.24
		c0.09-0.18,0.04-0.36-0.14-0.55c0.51-0.17,0.75,0.01,0.79,0.47c0.59-0.42,1.21-0.82,1.94-1.15c2.19-1,3.73-2.32,4.65-3.96
		c-2.01,0.91-3.6,1.87-4.78,2.87c-1.19,1-2.78,1.5-4.78,1.5c0,0.19-0.1,0.27-0.27,0.27c0,0.19-0.09,0.32-0.27,0.41
		c-0.18,0.09-0.37-0.04-0.55-0.41h0.82l0.27-0.27c0.91-0.91,1.91-1.54,3.01-1.91c1.09-0.36,1.91-1.18,2.46-2.46
		c-2.37,1.09-4.64,2.46-6.83,4.1c-2.19,1.64-4.37,2.73-6.56,3.28c0.91-0.91,2.09-1.73,3.55-2.46c1.46-0.73,2-1.55,1.64-2.46
		c3.09-0.36,5.51-1.37,7.24-3.01c1.73-1.64,3.69-3.01,5.88-4.1c-0.37-0.36-0.5-0.5-0.41-0.41c0.09,0.09,0.14-0.04,0.14-0.41
		c3.46-1.82,6.42-3.78,8.88-5.88c2.46-2.09,5.24-3.87,8.33-5.33c0.36-1.27,0.91-1.27,1.64,0c1.46-2.55,3.37-4.37,5.74-5.46
		c1.43-0.66,2.68-1.59,3.78-2.72c0.45-0.57,0.91-1.09,1.36-1.64C108.63,144.13,108.84,143.87,109.03,143.57z M0.82,176.36
		c0.18-0.55,0.27-0.5,0.27,0.14C1.09,177.14,1,177.09,0.82,176.36z M1.5,173.36c-0.45,0.37-0.5,0.27-0.14-0.27
		C1.91,172.9,1.96,172.99,1.5,173.36z M62.3,180.73c0.55-0.18,0.59-0.09,0.14,0.27C61.98,181.37,61.94,181.28,62.3,180.73z
		 M58.75,175.41c0.36,0.46,0.18,0.5-0.55,0.14C58.2,175,58.38,174.95,58.75,175.41z M59.16,182.51c-0.09,0.46-0.32,0.5-0.68,0.13
		v-0.55c0.18,0,0.27-0.09,0.27-0.27C59.11,181.83,59.25,182.06,59.16,182.51z M55.2,176.64c0.36,0.91,0.68,1.19,0.96,0.82
		c0.27-0.36,0.5-0.82,0.68-1.37c0.36,0.37,0.59,0.59,0.68,0.69c0.09,0.09,0.41-0.04,0.96-0.41c-0.91,1.28-1.91,2.1-3.01,2.46
		c0.18-0.55,0.09-0.96-0.27-1.23C54.83,177.32,54.83,177,55.2,176.64z M55.06,178.82c0.27,0.37,0.04,0.37-0.68,0
		C54.56,178.46,54.79,178.46,55.06,178.82z M50.82,183.47c0-0.18,0.09-0.23,0.27-0.13C51.28,183.42,51.19,183.47,50.82,183.47
		c0,0.37-0.09,0.5-0.27,0.41C50.37,183.79,50.46,183.65,50.82,183.47z M49.18,181.83c-0.37,0.55-0.87,0.91-1.5,1.09
		c-0.64,0.18-1.32,0.46-2.05,0.82C46.18,182.47,47.36,181.83,49.18,181.83z M43.99,184.29c0.36,0.37,0.18,0.37-0.55,0
		C43.45,183.92,43.63,183.92,43.99,184.29z M47.82,188.93c0.55,0,1-0.09,1.37-0.27C49.18,189.2,48.73,189.3,47.82,188.93z
		 M41.26,188.93c2.91-0.55,5.56-1.5,7.92-2.87c2.37-1.37,4.92-2.23,7.65-2.6c0-0.36,0.04-0.5,0.14-0.41
		c0.09,0.09,0.04,0.23-0.14,0.41c-2.19,1.28-4.56,2.46-7.1,3.55C47.18,188.11,44.36,188.75,41.26,188.93z M57.79,184.83
		c-0.27,0.37-0.59,0.55-0.96,0.55c-0.91,0.37-1.78,0.87-2.6,1.5c-0.82,0.64-1.96,0.96-3.42,0.96c0,0.37-0.27,0.55-0.82,0.55
		c0-0.36,0.27-0.55,0.82-0.55c0.91-0.36,1.82-0.86,2.73-1.5c0.91-0.64,2-0.96,3.28-0.96c-0.18-0.55-0.09-0.82,0.27-0.82
		c0.36,0,0.55-0.18,0.55-0.55C58.02,184.2,58.06,184.47,57.79,184.83z M58.75,183.74c0,0.18-0.09,0.27-0.27,0.27
		C58.29,184.01,58.38,183.92,58.75,183.74c0-0.55,0.36-0.73,1.09-0.55C59.48,183.74,59.11,183.92,58.75,183.74z M59.3,179.37
		c-0.18-0.18-0.27-0.63-0.27-1.37c0.18,0.18,0.45,0.55,0.82,1.09C59.48,179.1,59.3,179.19,59.3,179.37z M59.3,176.09v-0.55
		c0.73-0.18,1.09,0,1.09,0.55H59.3z M63.39,176.09c-0.18,0-0.32-0.09-0.41-0.27c-0.09-0.18-0.23-0.27-0.41-0.27v-0.82
		c0.18,0,0.31,0.09,0.41,0.27c0.09,0.18,0.23,0.27,0.41,0.27V176.09z M63.94,175c0.18-0.18,0.32-0.41,0.41-0.68
		c0.09-0.27,0.31-0.41,0.68-0.41C65.03,174.63,64.67,175,63.94,175z M84.98,157.1c0.36,0.46,0.18,0.5-0.55,0.14
		C84.43,156.69,84.61,156.65,84.98,157.1z M76.78,161.88l0.27-0.27c0-0.18,0.09-0.23,0.27-0.14c0.18,0.1,0.09,0.14-0.27,0.14
		C77.06,161.97,76.96,162.06,76.78,161.88c0,0.37-0.09,0.5-0.27,0.41C76.33,162.2,76.42,162.06,76.78,161.88z M74.87,163.25
		c0,0.37-0.09,0.46-0.27,0.27C74.41,163.34,74.5,163.25,74.87,163.25z M72.41,164.89c0.36,0.37,0.18,0.37-0.55,0
		C71.86,164.52,72.04,164.52,72.41,164.89z M76.78,165.16c0.36,0.37,0.55,0.73,0.55,1.09C76.96,166.25,76.78,165.89,76.78,165.16z
		 M84.98,158.33l-0.27,0.27c0,0.55-0.37,0.73-1.09,0.55c-1.28,0.91-2.6,1.91-3.96,3.01c-1.37,1.09-2.87,1.82-4.51,2.19
		c-0.37,0.37-0.73,0.46-1.09,0.27c-0.37,0.73-0.73,1.09-1.09,1.09c-0.37,0.73-1.09,1.19-2.19,1.37l-0.27-0.27
		c-0.18,0.37-0.37,0.68-0.55,0.96c-0.19,0.27-0.55,0.41-1.09,0.41c0.36-0.36,0.64-0.68,0.82-0.96c0.18-0.27,0.45-0.41,0.82-0.41
		c0-0.36,0.09-0.27,0.27,0.27c0.36-0.73,1.09-1.18,2.19-1.37c0.36-0.73,0.73-1.09,1.09-1.09c0.18-0.18,0.55-0.27,1.09-0.27
		c0.36-0.91,1.05-1.41,2.05-1.5c1-0.09,1.32-0.77,0.96-2.05l0.55,0.55c0.36,0.37,0.64,0.37,0.82,0c-0.37-0.36-0.41-0.73-0.14-1.09
		c0.27-0.36,0.59-0.45,0.96-0.27c0,0.37-0.14,0.59-0.41,0.68c-0.27,0.1-0.41,0.32-0.41,0.69c0.91-0.36,1.59-0.82,2.05-1.37
		c0.45-0.55,1.13-0.82,2.05-0.82c0.36-0.36,0.73-0.55,1.09-0.55C84.71,158.24,84.8,158.15,84.98,158.33c0-0.36,0.09-0.5,0.27-0.41
		C85.43,158.01,85.34,158.15,84.98,158.33z M90.45,155.05c0,0.37-0.09,0.46-0.27,0.27c-0.37,0.73-1.09,1.19-2.19,1.37
		c-0.37,0.37-0.64,0.55-0.82,0.55l-0.27,0.27c0,0.37-0.27,0.55-0.82,0.55c0,0.37-0.09,0.41-0.27,0.13
		c-0.18-0.27-0.09-0.31,0.27-0.13c0-0.36,0.27-0.55,0.82-0.55c0-0.36,0.09-0.45,0.27-0.27c0.36-0.36,0.63-0.55,0.82-0.55
		c0.55-0.91,1.27-1.37,2.19-1.37L90.45,155.05c0.18-0.18,0.36-0.41,0.55-0.68c0.18-0.27,0.45-0.31,0.82-0.14
		C91.27,154.78,90.81,155.05,90.45,155.05z M92.91,153.41c0-0.55,0.27-0.55,0.82,0C93.73,153.96,93.45,153.96,92.91,153.41z
		 M95.09,152.32c0,0.55-0.18,0.64-0.55,0.27C94.18,152.23,94.36,152.14,95.09,152.32c0-0.18,0.09-0.23,0.27-0.14
		C95.54,152.27,95.45,152.32,95.09,152.32z M102.2,148.35c-0.18-0.09-0.09-0.23,0.27-0.41C102.47,148.31,102.38,148.45,102.2,148.35
		z"/>
	<path class="st1" d="M0.82,176.36c0.18,0.73,0.27,0.78,0.27,0.14C1.09,175.86,1,175.82,0.82,176.36z"/>
	<path class="st1" d="M1.37,173.08c-0.36,0.55-0.31,0.64,0.14,0.27C1.96,172.99,1.91,172.9,1.37,173.08z"/>
	<path class="st1" d="M56.97,183.06c-0.09-0.09-0.14,0.05-0.14,0.41C57.02,183.29,57.06,183.15,56.97,183.06z"/>
	<path class="st1" d="M77.33,161.47c-0.19-0.09-0.27-0.04-0.27,0.14C77.42,161.61,77.51,161.57,77.33,161.47z"/>
	<path class="st1" d="M77.06,161.61l-0.27,0.27C76.96,162.06,77.06,161.97,77.06,161.61z"/>
	<path class="st1" d="M102.2,148.35c0.18,0.09,0.27-0.04,0.27-0.41C102.1,148.13,102.01,148.26,102.2,148.35z"/>
	<path class="st1" d="M86.35,164.07c0.36,0,0.59-0.18,0.68-0.55c0.09-0.36,0.31-0.64,0.68-0.82
		C86.8,162.7,86.35,163.16,86.35,164.07z"/>
	<path class="st1" d="M85.53,165.7c0.91,0.37,1.18,0.37,0.82,0C85.98,165.34,85.71,165.34,85.53,165.7z"/>
	<path class="st1" d="M96.46,159.01c-0.37,0.1-0.27,0.32,0.27,0.69c0-0.36,0.18-0.55,0.55-0.55c0.36,0,0.27-0.18-0.27-0.55
		C97.01,158.78,96.82,158.92,96.46,159.01z"/>
	<path class="st1" d="M92.09,156.96c0-0.55-0.19-0.55-0.55,0C91.9,157.51,92.09,157.51,92.09,156.96z"/>
	<path class="st1" d="M150.56,173.08c0-0.18,0.04-0.63,0.14-1.37c0.09-0.73-0.05-0.91-0.41-0.55c0,0.37-0.05,0.78-0.14,1.23
		C150.06,172.86,150.19,173.08,150.56,173.08z"/>
	<path class="st1" d="M150.29,173.63c0-0.07,0-0.11,0-0.14c0,0.09-0.09,0.32-0.27,0.68L150.29,173.63z"/>
	<path class="st1" d="M150.7,170.62c-0.27-0.36-0.41-0.27-0.41,0.27C150.84,171.08,150.97,170.99,150.7,170.62z"/>
	<path class="st1" d="M148.03,144.55c0.03,0.08,0.08,0.12,0.08,0.25c0,0.46-0.09,0.59-0.27,0.41l-0.55,0.55
		c-0.37-1.09-0.96-2.14-1.78-3.14c-0.82-1-2.14-1.32-3.96-0.96c-6.38,6.92-12.66,14.03-18.85,21.31
		c-6.2,7.29-13.39,13.76-21.59,19.4v-1.09c-0.36,0.37-0.64,0.55-0.82,0.55c1.46-4.55,3.14-8.56,5.06-12.02
		c1.91-3.46,3.87-6.65,5.87-9.56c1.27-1.27,2.41-2.73,3.42-4.37c1-1.64,2.23-2.64,3.69-3.01c-0.37-0.55-0.46-0.91-0.27-1.09
		c0.18-0.18,0.45-0.45,0.82-0.82c2-1.09,4.05-2.87,6.15-5.33c2.09-2.46,4.6-4.24,7.52-5.33c0.55,0,0.96,0.19,1.23,0.55
		c0.27,0.37,0.68,0.46,1.23,0.27c0.36,0,0.55-0.13,0.55-0.41s0.18-0.23,0.55,0.14c0.55-1.64,0.55-3.01,0-4.1
		c-0.55-1.09-1.37-2-2.46-2.73c-1.09-0.73-2.32-1.41-3.69-2.05c-1.37-0.64-2.51-1.23-3.41-1.78c-0.92,0.55-1.74,0.87-2.46,0.96
		c-0.73,0.09-1.74,0.14-3.01,0.14c-4.41,3.81-8.6,8.23-12.62,13.13c-0.42,0.59-0.88,1.14-1.36,1.64c-1.66,2.09-3.29,4.26-4.88,6.54
		c-1.22,1.76-2.32,3.57-3.35,5.41c0.03,0.02,0.04,0.03,0.07,0.05c0.31,0.31,0.2,0.41-0.28,0.32c-3.73,6.82-6.1,14.17-7.09,22.08
		c1.64,1.82,2.55,4.19,2.73,7.1c0.91,0.37,1.28,0.91,1.09,1.64c0.91,0.73,1.91,1.28,3.01,1.64c1.09,0.36,2.1,0.73,3.01,1.09
		c4.56-0.73,8.56-2.32,12.03-4.78c3.46-2.46,6.65-5.19,9.56-8.2c2.91-3.01,5.74-6.15,8.47-9.43c2.73-3.28,5.64-6.29,8.75-9.02
		c-0.19,3.28-0.46,6.6-0.82,9.97c-0.37,3.37-0.64,6.61-0.82,9.7c-0.19,3.1-0.09,6.15,0.27,9.15c0.36,3.01,1.27,5.78,2.73,8.33
		c1.09,0.36,1.78,0.82,2.05,1.37c0.27,0.55,0.77,1.09,1.5,1.64c0.91-0.37,1.82-0.37,2.73,0c-0.18-0.91-0.05-1.23,0.41-0.96
		c0.45,0.27,0.96,0.32,1.5,0.14c-0.91-0.91-1.32-2.1-1.23-3.55c0.09-1.46-0.32-2.37-1.23-2.73c0-0.37,0.14-0.5,0.41-0.41
		c0.27,0.09,0.41-0.05,0.41-0.41c-0.55-0.37-0.73-0.78-0.55-1.23c0.18-0.45,0.27-0.95,0.27-1.5h0.27h0.55
		c-0.91-2.55-1-5.46-0.27-8.74c0.73-3.28,1.37-6.65,1.91-10.11v-0.27c-0.37-0.55-0.5-1.37-0.41-2.46c0.09-1.09,0.31-1.82,0.68-2.19
		c-0.37,0.73-0.27,1.09,0.27,1.09c0-2.37,0.23-4.78,0.68-7.24c0.45-2.46,0.77-4.73,0.96-6.83c0.18-2.09-0.05-3.96-0.69-5.6
		C151.2,146.16,149.93,145.14,148.03,144.55z M96.46,171.99h-0.55v-0.82h0.55V171.99z M121.05,169.26c0.55-0.36,0.59-0.36,0.14,0
		C120.73,169.63,120.68,169.63,121.05,169.26z M120.64,170.21c0.27,0.09,0.23,0.14-0.14,0.14
		C120.32,170.17,120.37,170.12,120.64,170.21z M118.87,169.8c0.36,0.73,0.55,0.64,0.55-0.27c0-0.91,0.18-1.55,0.55-1.91
		c0.55,0.55,0.59,1.09,0.13,1.64c-0.46,0.55-0.78,1.09-0.95,1.64c0-0.18-0.09-0.27-0.27-0.27
		C118.68,170.62,118.68,170.35,118.87,169.8z M117.77,171.03c0.18-0.09,0.55-0.14,1.09-0.14c0.18,0.55,0.04,0.73-0.41,0.55
		c-0.46-0.18-0.87-0.27-1.23-0.27C117.41,171.17,117.59,171.13,117.77,171.03z M115.86,178.82c0.18-0.36,0.27-0.27,0.27,0.27
		C116.13,179.64,116.04,179.55,115.86,178.82z M116.41,178c0-0.55,0.14-0.63,0.41-0.27C117.09,178.1,116.95,178.18,116.41,178z
		 M118.87,178c-0.18-0.55-0.5-0.86-0.96-0.96c-0.46-0.09-0.68-0.31-0.68-0.68C118.5,176.36,119.05,176.91,118.87,178z M119.96,178
		h-0.82v-1.09h0.82V178z M140.59,153.55c-0.11,0.41-0.26,0.8-0.42,1.2c0,0.06,0.01,0.1,0.01,0.17c0,0.45-0.05,0.49-0.14,0.17
		c-0.04,0.09-0.09,0.17-0.13,0.26v0.79h-0.41c-0.05,0.09-0.09,0.18-0.14,0.27c-0.55,0.91-1.19,1.77-1.91,2.59
		c-0.73,0.82-1.28,1.6-1.64,2.32c-0.18,0-0.27,0.05-0.27,0.13c0,0.1-0.09,0.14-0.27,0.14c-1.28,1.09-2.46,2.14-3.55,3.14
		c-1.09,1-2.1,2.51-3.01,4.51c-0.55,0-1-0.09-1.37-0.27c-0.37-0.18-0.64-0.09-0.82,0.27c0.72,0.37,0.59,1.05-0.41,2.05
		c-1,1-1.87,1.6-2.6,1.78c-0.37,0-0.32,0.09,0.14,0.27c0.45,0.18,0.41,0.55-0.14,1.09c-0.37,0.37-0.55,0.27-0.55-0.27
		s-0.18-0.82-0.55-0.82c0,0.55-0.32,0.78-0.96,0.68c-0.64-0.09-0.96,0.23-0.96,0.96h1.37c0,0.91-0.46,1.37-1.37,1.37
		c0.36-0.55,0.31-0.77-0.14-0.68c-0.46,0.09-0.87,0.05-1.23-0.14v0.27h-0.27v-0.55h0.27v0.27c1.27-2.37,3.18-4.37,5.74-6.01
		c-0.37-0.18-0.78-0.27-1.23-0.27c-0.46,0-0.78,0-0.96,0c0.36-0.36,0.82-0.64,1.37-0.82c0.55-0.18,0.82-0.82,0.82-1.91
		c-0.37-0.18-0.64-0.09-0.82,0.27c-0.19,0.37-0.1,0.55,0.27,0.55c-0.37,0.73-0.68,0.73-0.96,0c-0.27-0.73-0.68-0.91-1.23-0.55
		c-0.18,0.37-0.09,0.55,0.27,0.55c0.36,0,0.45,0.19,0.27,0.55c-0.37,0.55-0.64,0.64-0.82,0.27c-0.18-0.36-0.46-0.55-0.82-0.55
		c1.46-1.64,2.96-3.28,4.51-4.92c1.55-1.64,3.41-3.1,5.6-4.37c0.55,0.55,0.55,0.87,0,0.96c-0.55,0.09-0.82,0.32-0.82,0.68l0.55,0.55
		c0.73-0.55,1.09-1.14,1.09-1.78c0-0.64,0.18-1.23,0.55-1.78c0.91,0,1.73-0.27,2.46-0.82c0.73-0.55,0.91-1.27,0.55-2.19
		c0.91-0.18,1.55-0.68,1.91-1.5c0.36-0.82,0.82-1.23,1.37-1.23c0-0.36-0.09-0.55-0.27-0.55c-0.19,0-0.27-0.18-0.27-0.55
		c1.09,0.37,1.73,0.37,1.91,0C140.72,151.41,140.86,152.55,140.59,153.55z M121.6,170.35c0-0.55,0.45-0.82,1.37-0.82
		C122.96,170.08,122.51,170.35,121.6,170.35z M145.64,200c-0.18-0.09-0.09-0.14,0.27-0.14C145.92,200.04,145.82,200.09,145.64,200z"
		/>
	<rect x="95.91" y="171.17" class="st1" width="0.55" height="0.82"/>
	<path class="st1" d="M120.64,170.21c-0.27-0.09-0.32-0.04-0.14,0.14C120.87,170.35,120.91,170.31,120.64,170.21z"/>
	<path class="st1" d="M124.74,171.44c-0.09-0.18-0.05-0.27,0.14-0.27C124.88,171.54,124.83,171.63,124.74,171.44z M127.61,162.43
		c0.55-0.36,0.59-0.31,0.14,0.14C127.29,163.02,127.24,162.97,127.61,162.43z M125.42,170.35c0.36-0.55,0.55-0.59,0.55-0.14
		C125.97,170.67,125.79,170.72,125.42,170.35z M127.88,166.12c0,0.27-0.37,0.32-1.09,0.14c0.36,0.73,0.32,1.09-0.14,1.09
		c-0.46,0-0.87,0.19-1.23,0.55c0.18-0.36,0.41-0.69,0.68-0.96c0.27-0.27,0.5-0.5,0.68-0.68c0.36-0.18,0.59-0.36,0.68-0.55
		c0.09-0.18,0.32-0.27,0.68-0.27C127.97,165.62,127.88,165.84,127.88,166.12z M128.7,166.25c0.18-0.36,0.27-0.32,0.27,0.13
		C128.97,166.84,128.88,166.8,128.7,166.25z M131.16,164.34c0,0.73-0.19,0.91-0.55,0.55v-0.55H131.16c0-0.55,0.18-0.68,0.55-0.41
		C132.07,164.2,131.89,164.34,131.16,164.34z M131.43,161.61c0,0.91-0.27,1.19-0.82,0.82C130.61,161.88,130.89,161.61,131.43,161.61
		c0-0.55,0.14-0.68,0.41-0.41C132.12,161.47,131.98,161.61,131.43,161.61z M135.53,156.14h0.55v0.82h-0.55V156.14z M132.53,160.51
		c0-0.36,0.18-0.55,0.55-0.55C133.07,160.33,132.89,160.51,132.53,160.51z M135.67,158.19c-0.27,0.27-0.68,0.59-1.23,0.96
		c0.18-1.09,0.91-1.64,2.19-1.64C136.26,157.69,135.94,157.92,135.67,158.19z M137.17,156.14c0.18,0.55,0.09,0.68-0.27,0.41
		C136.53,156.28,136.63,156.14,137.17,156.14c0-0.36-0.18-0.59-0.55-0.68c-0.37-0.09-0.37-0.32,0-0.68c0.36-0.18,0.68,0,0.96,0.55
		C137.86,155.87,137.72,156.14,137.17,156.14z"/>
	<polygon class="st1" points="118.87,175.27 118.87,175.82 119.14,175.82 119.14,175.54 119.14,175.27 	"/>
	<path class="st1" d="M125.42,167.89c0.36-0.36,0.77-0.55,1.23-0.55c0.45,0,0.5-0.36,0.14-1.09c-0.18,0.18-0.41,0.41-0.68,0.68
		C125.83,167.21,125.6,167.53,125.42,167.89z"/>
	<path class="st1" d="M134.44,159.15c0.55-0.36,0.96-0.68,1.23-0.96c0.27-0.27,0.59-0.5,0.96-0.68
		C135.35,157.51,134.62,158.06,134.44,159.15z"/>
	<path class="st1" d="M132.53,160.51c0.36,0,0.55-0.18,0.55-0.55C132.71,159.97,132.53,160.15,132.53,160.51z"/>
	<rect x="135.53" y="156.14" class="st1" width="0.55" height="0.82"/>
	<path class="st1" d="M136.9,156.55c0.36,0.27,0.45,0.13,0.27-0.41C136.63,156.14,136.53,156.28,136.9,156.55z"/>
	<path class="st1" d="M130.61,162.43c0.55,0.37,0.82,0.09,0.82-0.82C130.89,161.61,130.61,161.88,130.61,162.43z"/>
	<path class="st1" d="M131.43,161.61c0.55,0,0.69-0.14,0.41-0.41C131.57,160.92,131.43,161.06,131.43,161.61z"/>
	<path class="st1" d="M131.16,164.34c0.73,0,0.91-0.14,0.55-0.41C131.34,163.66,131.16,163.79,131.16,164.34z"/>
	<path class="st1" d="M136.63,154.78c-0.37,0.37-0.37,0.59,0,0.68c0.36,0.09,0.55,0.32,0.55,0.68c0.55,0,0.69-0.27,0.41-0.82
		C137.31,154.78,136.99,154.6,136.63,154.78z"/>
	<path class="st1" d="M105.61,169.8c-0.27,0.37-0.23,0.64,0.14,0.82c0-0.36,0.09-0.55,0.27-0.55c0.18,0,0.37-0.18,0.55-0.55
		C106.21,169.35,105.89,169.44,105.61,169.8z"/>
	<path class="st1" d="M104.93,171.17c-0.55,0.91-0.59,1.05-0.14,0.41C105.25,170.94,105.3,170.81,104.93,171.17z"/>
	<path class="st1" d="M103.84,175c0-0.55,0.27-1,0.82-1.37c0.55-0.36,0.37-0.73-0.55-1.09c0.18,0.37,0.09,0.78-0.27,1.23
		C103.47,174.22,103.47,174.63,103.84,175z"/>
	<path class="st1" d="M145.64,200c0.18,0.09,0.27,0.04,0.27-0.14C145.55,199.86,145.46,199.9,145.64,200z"/>
	<path class="st1" d="M101.65,180.46c0-0.91,0.32-1.87,0.96-2.87c0.64-1,0.78-1.78,0.41-2.32c-0.18,0.92-0.55,1.78-1.09,2.6
		C101.38,178.68,101.29,179.55,101.65,180.46z"/>
	<path class="st1" d="M107.11,167.34c-0.36,0.19-0.45,0.55-0.27,1.09c0.37,0,0.64-0.27,0.82-0.82c0.18-0.55,0.09-0.91-0.27-1.09
		C107.57,166.89,107.48,167.17,107.11,167.34z"/>
	<path class="st1" d="M130.61,164.89c0.36,0.37,0.55,0.19,0.55-0.55h-0.55V164.89z"/>
	<path class="st1" d="M150.56,169.26c0-0.36,0.09-0.45,0.27-0.27c0-0.73-0.09-1.09-0.27-1.09V169.26z"/>
	<path class="st1" d="M128.7,166.25c0.18,0.55,0.27,0.59,0.27,0.13C128.97,165.94,128.88,165.89,128.7,166.25z"/>
	<path class="st1" d="M147.56,144.94c0,0.18,0.09,0.27,0.27,0.27C147.83,145.03,147.74,144.94,147.56,144.94z"/>
	<path class="st1" d="M147.56,144.39c0.17,0.04,0.31,0.11,0.47,0.16C147.95,144.36,147.82,144.26,147.56,144.39z"/>
	<path class="st1" d="M139.91,156.14v-0.79c-0.12,0.27-0.26,0.53-0.41,0.79H139.91z"/>
	<path class="st1" d="M140.18,154.91c0-0.07-0.01-0.11-0.01-0.17c-0.05,0.11-0.08,0.23-0.13,0.34
		C140.13,155.41,140.18,155.36,140.18,154.91z"/>
	<path class="st1" d="M147.15,144.66c-0.09,0.18,0.04,0.27,0.41,0.27C147.37,144.58,147.24,144.49,147.15,144.66z"/>
	<path class="st1" d="M110.94,161.33c0.18-0.18,0.27-0.45,0.27-0.82c0-0.18-0.18,0.09-0.55,0.82
		C110.67,161.52,110.76,161.52,110.94,161.33z"/>
	<path class="st1" d="M101.38,181.01c-0.18,0-0.27,0.1-0.27,0.27C101.47,181.1,101.56,181.01,101.38,181.01z"/>
	<path class="st1" d="M125.83,166.39c0.09-0.45,0.41-0.59,0.96-0.41c-0.37-0.36-0.37-0.82,0-1.37c-0.18-0.18-0.32-0.36-0.41-0.55
		c-0.09-0.18-0.32-0.36-0.68-0.55c-0.19,0.37-0.23,0.68-0.14,0.96c0.09,0.27,0.14,0.59,0.14,0.96c-0.37,0-0.82,0.05-1.37,0.13
		c-0.55,0.09-1,0.32-1.37,0.69c0,0.37,0.31,0.27,0.96-0.27c0.63-0.55,0.96-0.36,0.96,0.55
		C125.42,166.89,125.74,166.84,125.83,166.39z"/>
	<path class="st1" d="M124.74,171.44c0.09,0.19,0.14,0.09,0.14-0.27C124.69,171.17,124.65,171.27,124.74,171.44z"/>
	<path class="st1" d="M127.61,162.43c-0.37,0.55-0.32,0.59,0.14,0.14C128.2,162.11,128.15,162.06,127.61,162.43z"/>
	<path class="st1" d="M125.42,170.35c0.36,0.37,0.55,0.32,0.55-0.14C125.97,169.76,125.79,169.8,125.42,170.35z"/>
	<path class="st1" d="M126.79,166.25c0.73,0.18,1.09,0.13,1.09-0.14c0-0.27,0.09-0.5,0.27-0.68c-0.37,0-0.59,0.09-0.68,0.27
		C127.38,165.89,127.15,166.07,126.79,166.25z"/>
	<path class="st1" d="M138.81,155.32v0.82h0.69c0.15-0.26,0.28-0.52,0.41-0.79v-0.03H138.81z"/>
	<path class="st1" d="M134.85,161.47c0.09,0.1,0.23,0.14,0.41,0.14v-0.27C134.89,161.33,134.76,161.38,134.85,161.47z"/>
	<path class="st1" d="M139.91,154.5c0.05,0.27,0.1,0.45,0.13,0.59c0.05-0.11,0.09-0.23,0.13-0.34
		C140.15,154.27,140.07,154.18,139.91,154.5z"/>
	<path class="st1" d="M107.07,146.04c0.49-0.5,0.94-1.05,1.36-1.64C107.98,144.96,107.52,145.48,107.07,146.04z"/>
	<path class="st1" d="M98.92,158.06c-0.03-0.03-0.04-0.03-0.07-0.05c-0.07,0.13-0.15,0.25-0.21,0.38
		C99.11,158.47,99.23,158.37,98.92,158.06z"/>
	<path class="st1" d="M257.42,142.4c0.35-1.07,0.62-2.13,0.8-3.2c-5.83,2.01-11.75,3.37-17.76,4.1c-6.01,0.73-11.57-0.73-16.67-4.37
		c-4.56-1.27-9.2-2.14-13.94-2.6c-4.74-0.45-8.84,0.78-12.3,3.69c-1.82,1.64-3.46,3.37-4.92,5.19c-1.46,1.82-3.1,3.55-4.92,5.19
		c-0.18-2-0.09-3.55,0.27-4.64c0.36-1.09,0.91-2.64,1.64-4.65c-1.46-1.27-3.1-2.09-4.92-2.46c-1.82-0.36-3.92-0.73-6.29-1.09
		c-2.55,10.38-4.69,20.63-6.42,30.74c-1.73,10.11-3.59,20.36-5.6,30.74c1.46,1.46,2.83,2.82,4.1,4.1c1.28,1.27,2.73,2.09,4.37,2.46
		c2.37-2.01,4.06-4.42,5.05-7.24c1-2.83,1.68-5.6,2.05-8.33c2.19-4.37,4.19-9.02,6.01-13.94c1.82-4.92,3.87-9.56,6.15-13.93
		c2.28-4.37,4.96-8.33,8.06-11.89c3.1-3.55,7.1-6.24,12.02-8.06c3.1,1.09,6.33,2.32,9.7,3.69c3.37,1.37,6.88,2.46,10.52,3.28
		c3.64,0.82,7.33,1.14,11.07,0.95c1.92-0.09,3.86-0.44,5.81-1.01c0.12-0.21,0.21-0.42,0.33-0.62
		C253.58,146.42,255.5,144.41,257.42,142.4z M200.02,141.11c0.55-0.36,0.59-0.31,0.14,0.14
		C199.7,141.71,199.65,141.66,200.02,141.11z M196.33,144.8c0.09-0.09,0.14-0.31,0.14-0.68c0.36,0,0.55,0.37,0.55,1.09h-0.82
		C196.19,145.03,196.23,144.9,196.33,144.8z M194,146.58c0.36-0.36,0.45-0.18,0.27,0.55c0.91-0.55,1.18-1.27,0.82-2.19
		c0.36,0,0.55,0.14,0.55,0.41c0,0.27,0.18,0.41,0.55,0.41c-0.37,0.37-0.69,0.78-0.96,1.23c-0.27,0.46-0.59,0.5-0.96,0.14
		C193.73,147.12,193.64,146.95,194,146.58z M187.04,158.46c0.27-0.45,0.59-0.59,0.96-0.41c-0.19,0.18-0.32,0.37-0.41,0.55
		c-0.09,0.18-0.23,0.37-0.41,0.55C186.81,159.15,186.76,158.92,187.04,158.46z M186.08,163.38c0.36-0.27,0.55-0.68,0.55-1.23
		c0.55,0.37,0.64,0.68,0.27,0.95c-0.37,0.27-0.46,0.59-0.27,0.96C185.9,163.89,185.71,163.66,186.08,163.38z M185.53,168.71
		c-0.19,0-0.27-0.04-0.27-0.14c0-0.09-0.09-0.14-0.27-0.14c0-0.18,0.04-0.27,0.14-0.27c0.09,0,0.14-0.09,0.14-0.27
		c0.18,0,0.27,0.05,0.27,0.13c0,0.09,0.18,0.14,0.55,0.14L185.53,168.71z M187.58,164.75c-0.09,0.64-0.5,1.14-1.23,1.5
		c0-0.91,0.23-1.55,0.68-1.91c0.45-0.36,0.77-1,0.96-1.91c0.18,0.19,0.23,0.41,0.13,0.68c-0.09,0.27,0.04,0.41,0.41,0.41
		C187.99,163.7,187.67,164.11,187.58,164.75z M198.65,145.76c0.18,0.73,0.14,1.23-0.13,1.5c-0.27,0.27-0.41,0.68-0.41,1.23
		c-0.91,0-1.37,0.09-1.37,0.27c-0.55-0.36-0.46-0.64,0.27-0.82c0.73-0.18,1-0.55,0.82-1.09c-0.73-0.18-1.41,0.23-2.05,1.23
		c-0.64,1-1.14,1.96-1.5,2.87h0.55c0-0.55,0.18-0.91,0.55-1.09c0.36-0.18,0.55-0.55,0.55-1.09c0.73,0.37,0.82,0.78,0.27,1.23
		c-0.55,0.46-1,0.78-1.37,0.95c-0.91,2.01-1.91,3.83-3.01,5.47c-1.09,1.64-2.1,3.37-3.01,5.19c-0.19-0.18-0.27-0.63-0.27-1.37
		c-0.37,0-0.59,0.23-0.68,0.68c-0.09,0.46-0.32,0.68-0.68,0.68c0.18-1.27,0.59-2.27,1.23-3.01c0.64-0.73,1.05-1.73,1.23-3.01
		c-0.37,0.18-0.59,0.55-0.69,1.09c-0.09,0.55-0.41,0.73-0.95,0.55c0-0.91,0.41-1.73,1.23-2.46c0.82-0.73,1.05-1.55,0.68-2.46
		c0.36-0.36,0.77-0.68,1.23-0.96c0.45-0.27,0.68-0.68,0.68-1.23c0-0.12,0.02-0.24,0.05-0.35c0,0,0-0.01,0.01-0.01
		c0.22-0.78,1.16-1.52,2.81-2.23c1.91-0.82,3.23-1.96,3.96-3.42c-0.18,0.37-0.27,0.68-0.27,0.96c0,0.27-0.09,0.5-0.27,0.68H198.65
		c0-0.18,0.09-0.27,0.27-0.27C199.1,145.48,199.01,145.58,198.65,145.76z M199.74,145.21h-0.55v-0.82h0.55V145.21z M200.02,144.12
		c0-0.18,0.04-0.27,0.14-0.27c0.09,0,0.13-0.09,0.13-0.27h0.82C201.11,143.94,200.74,144.12,200.02,144.12z M200.29,142.75
		c0,0.37-0.18,0.73-0.55,1.09c-0.37-0.36-0.59-0.59-0.68-0.68c-0.09-0.09-0.41,0.05-0.96,0.41c-0.37-1.09,0-1.54,1.09-1.37
		c1.09,0.19,1.73,0,1.91-0.55c0.18,0,0.27,0.27,0.27,0.82C200.65,142.3,200.29,142.39,200.29,142.75z"/>
	<path class="st1" d="M355.77,144.66c-0.18,0-0.27-0.09-0.27-0.27v-0.27c-8.2,2.37-16.12,5.28-23.77,8.74
		c-7.65,3.46-15.35,6.79-23.09,9.97c-7.74,3.19-15.76,5.92-24.05,8.2c-8.29,2.28-17.35,3.41-27.19,3.41
		c-2.55-1.09-4.46-2.46-5.74-4.1c0.55-5.64,2.28-9.47,5.19-11.48c0.73,2.73,2.05,4.56,3.96,5.46c1.91,0.91,4.42,1.19,7.52,0.82
		c4.73-1.64,8.74-4.1,12.02-7.38s6.83-6.38,10.66-9.29c1.82-3.64,2.55-7.51,2.19-11.61c-0.37-4.1-2.28-7.24-5.74-9.43
		c-4.19,0-7.97,0.64-11.34,1.91c-3.37,1.28-6.51,2.92-9.43,4.92c-2.92,2.01-5.56,4.24-7.92,6.7c-0.45,0.47-0.9,0.95-1.35,1.42
		c-0.01,0.03-0.01,0.05-0.02,0.08c-0.37,1.09-0.55,2.55-0.55,4.37c-1.85,0.97-3.7,1.72-5.53,2.26c-1.99,3.49-3.35,7.32-4.04,11.53
		c-0.73,4.47-0.55,8.65,0.55,12.57c1.09,3.92,3.24,7.24,6.42,9.97c3.19,2.73,7.6,4.1,13.25,4.1c6.92-0.36,12.93-1.55,18.04-3.55
		c5.1-2,10.38-3.92,15.85-5.74c0.36-0.55,1.09-1.55,2.19-3.01c0.91,0.55,1.82,0.64,2.73,0.27c0.91-0.36,1.73-0.82,2.46-1.37
		c-0.73,0.19-1.09-0.09-1.09-0.82c0.72-0.36,1.41-0.68,2.05-0.96c0.64-0.27,1.23-0.68,1.78-1.23c-0.73-0.36-1.09-0.64-1.09-0.82
		c0.91-1.09,2-1.64,3.28-1.64c1.27,0,2.28-0.73,3.01-2.19c0.55,0.18,0.82,0.5,0.82,0.95c0,0.46,0.36,0.59,1.09,0.41
		c0-0.55-0.18-0.96-0.55-1.23c-0.37-0.27-0.46-0.77-0.27-1.5c3.1-1.45,6.38-2.91,9.84-4.37c3.46-1.46,6.38-3.46,8.74-6.01
		c-0.37,0-0.73,0.14-1.09,0.41c-0.37,0.27-0.73,0.55-1.09,0.82c-0.37,0.27-0.73,0.46-1.09,0.55c-0.37,0.09-0.64-0.23-0.82-0.96
		c3.46-1.82,7.33-3.69,11.61-5.6C348.16,147.81,352.12,146.13,355.77,144.66z M262.59,151.36c1.09-0.27,2-0.86,2.73-1.78
		c0-0.18-0.37-0.27-1.09-0.27c2.91-4.19,6.15-7.83,9.7-10.93c3.55-3.1,7.88-5.28,12.98-6.56c0-0.18,0.04-0.32,0.14-0.41
		c0.09-0.09,0.14-0.31,0.14-0.68c0.36,0,0.55,0.14,0.55,0.41c0,0.27,0.27,0.41,0.82,0.41c-2.55,6.38-6.28,11.07-11.2,14.07
		c-4.92,3.01-10.57,5.51-16.94,7.52C260.77,152.23,261.49,151.63,262.59,151.36z M268.87,178.68c-0.91-0.27-1.73-0.59-2.46-0.96
		c0-0.55,0.64-0.68,1.91-0.41c1.27,0.27,2.09,0.59,2.46,0.96C270.42,178.82,269.78,178.96,268.87,178.68z M300.02,177.46
		c-0.18-0.55,0.09-0.64,0.82-0.27C300.84,177.73,300.57,177.82,300.02,177.46z M305.22,175h-0.82v-0.55h0.82V175z M305.76,174.45
		c0-0.55,0.18-0.91,0.55-1.09c0.36-0.18,0.73-0.09,1.09,0.27C307.22,173.81,306.67,174.09,305.76,174.45z M308.77,171.31
		c-0.55,0.09-1.09,0.32-1.64,0.69c0-0.73,0.32-1.14,0.96-1.23c0.64-0.09,1.23-0.31,1.78-0.68
		C309.68,170.81,309.31,171.22,308.77,171.31z M314.64,164.48c-6.65,2.82-13.53,4.96-20.63,6.42c-3.1,1.09-6.1,2.14-9.02,3.14
		c-2.92,1-6.01,1.05-9.29,0.14c5.1-0.55,10.06-1.55,14.89-3.01c4.82-1.46,9.52-3.1,14.07-4.92c4.55-1.82,9.06-3.6,13.53-5.33
		c4.46-1.73,8.97-3.32,13.53-4.78C326.98,158.87,321.29,161.65,314.64,164.48z"/>
	<path class="st1" d="M300.02,177.46c0.55,0.37,0.82,0.27,0.82-0.27C300.11,176.82,299.84,176.91,300.02,177.46z"/>
	<rect x="304.4" y="174.45" class="st1" width="0.82" height="0.55"/>
	<path class="st1" d="M306.31,173.36c-0.37,0.18-0.55,0.55-0.55,1.09c0.91-0.36,1.45-0.63,1.64-0.82
		C307.03,173.27,306.67,173.18,306.31,173.36z"/>
	<path class="st1" d="M307.13,171.99c0.55-0.36,1.09-0.59,1.64-0.69c0.55-0.09,0.91-0.5,1.09-1.23c-0.55,0.37-1.14,0.59-1.78,0.68
		C307.44,170.85,307.13,171.27,307.13,171.99z"/>
	<path class="st1" d="M356.86,143.3c-0.73,0-1.19,0.27-1.37,0.82c0.36-0.18,0.73-0.23,1.09-0.14
		C356.95,144.08,357.04,143.84,356.86,143.3z"/>
	<path class="st1" d="M337.46,154.5c0,0.18-0.05,0.27-0.14,0.27c-0.09,0-0.14,0.09-0.14,0.27c0.73,0,1-0.18,0.82-0.55H337.46z"/>
	<rect x="315.87" y="167.62" class="st1" width="0.82" height="0.82"/>
	<path class="st1" d="M342.92,151.5c0.18,0.37,0,0.41-0.55,0.14c-0.55-0.27-0.64-0.14-0.27,0.41c0.36,0.37,0.73,0.41,1.09,0.14
		C343.56,151.91,343.47,151.68,342.92,151.5z"/>
	<path class="st1" d="M318.88,165.7c0,0.73,0.18,1.19,0.55,1.37c0.36-0.18,0.5-0.45,0.41-0.82
		C319.74,165.89,319.42,165.7,318.88,165.7z"/>
	<path class="st1" d="M338.82,153.41c1.64,0.37,2.73-0.09,3.28-1.37C340.28,152.41,339.19,152.86,338.82,153.41z"/>
	<rect x="337.73" y="153.14" class="st1" width="0.82" height="0.82"/>
	<path class="st1" d="M257.4,142.48c0.01-0.03,0.01-0.05,0.02-0.08c-1.92,2.01-3.84,4.02-5.76,6.09c-0.12,0.2-0.22,0.42-0.33,0.62
		c1.83-0.54,3.68-1.29,5.53-2.26C256.85,145.03,257.03,143.57,257.4,142.48z"/>
	<path class="st1" d="M100.88,14.3h-8.94v0.15c0.05,0,0.09-0.01,0.14-0.01c1.56,0,2.83,1.27,2.83,2.83c0,1.56-1.27,2.83-2.83,2.83
		c-0.05,0-0.09-0.01-0.14-0.01v0.29h8.8l-2.42,4.51l3.28,5.75l7.84-13.36l-7.84-13.73l-3.47,5.79L100.88,14.3z"/>
	<path class="st1" d="M92.81,17.27c0-1.56-1.27-2.83-2.83-2.83c-1.56,0-2.83,1.27-2.83,2.83c0,1.56,1.27,2.83,2.83,2.83
		C91.55,20.1,92.81,18.83,92.81,17.27z"/>
	<polygon class="st0" points="99.65,33.87 96.41,28.08 83.73,28.08 77.35,17.09 83.55,6.23 96.41,6.23 99.74,0.35 80.31,0.35 
		70.55,16.99 80.27,33.87 	"/>
	<path d="M126.42,33.9c5.79,0,9.67-0.68,11.62-2.04c1.96-1.36,3.38-4.36,4.28-8.99l0.22-1.15h-6.35l-0.24,1.49
		c-0.43,2.21-1.17,3.65-2.24,4.3c-1.06,0.65-3.16,0.98-6.3,0.98c-3.87,0-6.05-0.59-6.53-1.76c-0.48-1.17-0.1-4.95,1.13-11.32
		c0.92-4.73,1.86-7.58,2.84-8.54c0.98-0.96,3.42-1.44,7.35-1.44c2.93,0,4.74,0.31,5.45,0.92c0.7,0.61,0.84,2.01,0.42,4.19
		l-0.17,0.85h6.35l0.12-0.76c0.82-4.23,0.57-7.06-0.75-8.48c-1.32-1.42-4.35-2.14-9.1-2.14c-6.53,0-10.98,0.87-13.37,2.6
		c-2.39,1.73-4.11,5.35-5.18,10.85c-1.81,9.34-2.17,15.08-1.07,17.23C116.01,32.83,119.84,33.9,126.42,33.9z"/>
	<path d="M149.13,33.61l2.57-13.25c0.77-3.95,3.05-5.93,6.86-5.93c2.78,0,3.91,1.37,3.38,4.1l-0.15,0.76l-2.78,14.33h5.59
		l3.07-15.86c1-5.16-1.23-7.74-6.68-7.74c-3.74,0-6.4,1.38-7.98,4.15l-0.12-0.02l2.68-13.84H150l-6.46,33.31H149.13z"/>
	<polygon points="179.69,10.28 174.1,10.28 169.58,33.61 175.17,33.61 	"/>
	<polygon points="181.62,0.29 176.03,0.29 175.13,4.95 180.72,4.95 	"/>
	<g>
		<path d="M202.92,12.26c-1.12-1.52-3.76-2.28-7.93-2.28c-4.34,0-7.42,0.78-9.22,2.34c-1.8,1.56-3.14,4.61-4.02,9.15
			c-0.99,5.11-0.92,8.45,0.2,10.03c1.13,1.58,4.01,2.37,8.64,2.37c6.83,0,10.69-2.28,11.57-6.83l0.18-0.9h-5.61
			c-0.29,1.48-0.78,2.45-1.49,2.89c-0.71,0.45-2.08,0.67-4.13,0.67c-2.11,0-3.45-0.38-4.01-1.15c-0.56-0.76-0.62-2.29-0.17-4.59
			c0.03-0.16,0.11-0.5,0.25-1.03h15.79l0.33-1.71C204.17,16.78,204.04,13.79,202.92,12.26z M198.22,18.6l-0.15,0.93h-10.18
			c0.43-2.25,1.03-3.7,1.79-4.37c0.76-0.67,2.17-1,4.26-1c2.15,0,3.49,0.28,4.02,0.83C198.5,15.54,198.58,16.74,198.22,18.6z"/>
	</g>
	<path d="M206.42,32.41c1.27,0.99,3.9,1.49,7.89,1.49c4.15,0,7.13-0.55,8.95-1.65c1.82-1.1,3-3.07,3.55-5.92
		c0.52-2.67,0.26-4.43-0.78-5.3c-1.04-0.86-3.53-1.39-7.48-1.59c-2.93-0.15-4.63-0.34-5.1-0.59c-0.47-0.24-0.57-1.01-0.32-2.29
		c0.37-1.89,2.01-2.83,4.92-2.83c2.03,0,3.29,0.14,3.76,0.41c0.47,0.28,0.66,0.98,0.56,2.1c0,0.1-0.01,0.24-0.01,0.44h5.47
		c0.51-2.65,0.19-4.43-0.98-5.34c-1.17-0.91-3.69-1.37-7.58-1.37c-4.12,0-6.99,0.47-8.62,1.42c-1.63,0.94-2.71,2.75-3.22,5.42
		c-0.58,2.98-0.16,4.94,1.24,5.88c1.4,0.94,4.6,1.42,9.6,1.42c2.21,0,3.13,0.98,2.75,2.95c-0.4,2.05-2.36,3.08-5.89,3.08
		c-3.42,0-4.81-1.03-4.18-3.1c0.05-0.2,0.15-0.46,0.3-0.78h-5.81l-0.11,0.59C204.78,29.56,205.15,31.42,206.42,32.41z"/>
	<polygon points="239.5,10.28 233.91,10.28 229.39,33.61 234.98,33.61 	"/>
	<polygon points="241.43,0.29 235.85,0.29 234.94,4.95 240.53,4.95 	"/>
	<path class="st1" d="M340.24,139.97c0,1.31,0.86,1.82,1.93,1.82c1.17,0,1.61-0.64,1.61-1.28c0-0.65-0.32-0.92-0.63-1.05
		c-0.53-0.23-1.22-0.38-2.27-0.7c-1.3-0.39-1.68-1.27-1.68-2.15c0-1.7,1.41-2.5,2.78-2.5c1.59,0,2.92,0.94,2.92,2.71h-1.33
		c-0.06-1.09-0.72-1.5-1.64-1.5c-0.62,0-1.39,0.25-1.39,1.1c0,0.59,0.36,0.93,0.9,1.09c0.12,0.04,1.8,0.52,2.19,0.65
		c1,0.33,1.48,1.28,1.48,2.16c0,1.9-1.51,2.66-3.02,2.66c-1.74,0-3.14-0.93-3.17-3.03H340.24z"/>
	<path class="st1" d="M345.87,134.32h1.87l2.1,6.64h0.02l2.04-6.64h1.85v8.49h-1.27v-6.55h-0.02l-2.11,6.55h-1.1l-2.11-6.55h-0.02
		v6.55h-1.27V134.32z"/>
</g>
</svg>
