<?xml version="1.0" encoding="utf-8"?>
<!-- Generator: Adobe Illustrator 25.2.1, SVG Export Plug-In . SVG Version: 6.00 Build 0)  -->
<svg version="1.1" id="Layer_1" xmlns="http://www.w3.org/2000/svg" xmlns:xlink="http://www.w3.org/1999/xlink" x="0px" y="0px"
	 viewBox="0 0 247.5 131.3" style="enable-background:new 0 0 247.5 131.3;" xml:space="preserve">
<style type="text/css">
	.st0{fill:#414042;}
	.st1{fill:#337096;}
	.st2{fill:#BFD5DD;}
	.st3{fill:#58595B;}
</style>
<g>
	<path class="st0" d="M11.8,103.3H2.3v0.2c0,1.3,0.4,2.3,1.1,3.1s1.7,1.2,2.9,1.2c0.8,0,1.5-0.2,2.2-0.7s1.2-1.1,1.7-2l1.6,1.1
		c-0.6,1.1-1.4,1.9-2.3,2.5c-0.9,0.6-2,0.8-3.3,0.8c-1.8,0-3.3-0.6-4.5-1.8C0.6,106.5,0,104.9,0,103c0-1.9,0.6-3.4,1.7-4.6
		c1.1-1.2,2.6-1.8,4.3-1.8c1.8,0,3.2,0.6,4.2,1.7c1,1.1,1.6,2.7,1.6,4.7V103.3z M9.6,101.7c-0.1-1.1-0.4-1.9-1.1-2.5
		c-0.6-0.6-1.5-0.9-2.6-0.9c-1,0-1.8,0.3-2.5,0.9s-1.1,1.4-1.2,2.4H9.6z"/>
	<path class="st0" d="M15,109V88.6h2.1V109H15z"/>
	<path class="st0" d="M32.7,97V109h-2v-2.2c-0.5,0.9-1.1,1.5-1.9,2c-0.8,0.5-1.6,0.7-2.5,0.7c-1.7,0-3.1-0.6-4.2-1.8
		c-1.1-1.2-1.6-2.8-1.6-4.7c0-2,0.5-3.6,1.5-4.7c1-1.2,2.4-1.8,4.1-1.8c1,0,1.9,0.2,2.6,0.7c0.7,0.5,1.3,1.1,1.8,2V97H32.7z
		 M30.7,103.1c0-1.4-0.4-2.5-1.1-3.3c-0.7-0.8-1.7-1.2-2.9-1.2c-1.2,0-2.2,0.4-2.9,1.1c-0.7,0.8-1,1.8-1,3.2c0,1.5,0.3,2.6,1,3.4
		c0.7,0.8,1.7,1.2,3,1.2c1.2,0,2.2-0.4,2.9-1.2C30.3,105.6,30.7,104.5,30.7,103.1z"/>
	<path class="st0" d="M36.8,114.9V97h2v2.3c0.5-0.9,1.1-1.5,1.8-2s1.6-0.7,2.6-0.7c1.7,0,3.1,0.6,4.2,1.8c1.1,1.2,1.6,2.8,1.6,4.7
		c0,2-0.5,3.6-1.5,4.7c-1,1.2-2.4,1.8-4.1,1.8c-1,0-1.9-0.2-2.6-0.7s-1.3-1.1-1.8-2v8.1H36.8z M38.8,103.1c0,1.4,0.4,2.4,1.1,3.3
		c0.7,0.8,1.7,1.2,3,1.2c1.2,0,2.1-0.4,2.8-1.1c0.7-0.7,1-1.8,1-3.1c0-1.5-0.3-2.6-1-3.5c-0.7-0.8-1.6-1.3-2.9-1.3
		c-1.3,0-2.2,0.4-3,1.2C39.2,100.5,38.8,101.6,38.8,103.1z"/>
	<path class="st0" d="M63,103.3h-9.6v0.2c0,1.3,0.4,2.3,1.1,3.1s1.7,1.2,2.9,1.2c0.8,0,1.5-0.2,2.2-0.7s1.2-1.1,1.7-2l1.6,1.1
		c-0.6,1.1-1.4,1.9-2.3,2.5c-0.9,0.6-2,0.8-3.3,0.8c-1.8,0-3.3-0.6-4.5-1.8c-1.1-1.2-1.7-2.8-1.7-4.8c0-1.9,0.6-3.4,1.7-4.6
		c1.1-1.2,2.6-1.8,4.3-1.8c1.8,0,3.2,0.6,4.2,1.7c1,1.1,1.6,2.7,1.6,4.7V103.3z M60.8,101.7c-0.1-1.1-0.4-1.9-1.1-2.5
		c-0.6-0.6-1.5-0.9-2.6-0.9c-1,0-1.8,0.3-2.5,0.9s-1.1,1.4-1.2,2.4H60.8z"/>
	<path class="st0" d="M77.3,97v11.8c0,1.3-0.1,2.2-0.3,2.8c-0.2,0.6-0.5,1-0.9,1.5c-0.6,0.6-1.2,1.1-2.1,1.4
		c-0.8,0.3-1.7,0.4-2.8,0.4c-1.8,0-3.3-0.4-4.3-1.3c-1-0.8-1.6-2-1.6-3.5h2.3v0.2c0,0.9,0.3,1.6,0.9,2.1c0.6,0.5,1.5,0.7,2.6,0.7
		c0.8,0,1.5-0.1,2.1-0.4c0.6-0.3,1-0.7,1.3-1.2c0.2-0.3,0.3-0.6,0.4-1c0.1-0.4,0.1-1,0.1-1.7v-0.9v-1.1c-0.5,0.9-1.1,1.5-1.8,2
		s-1.6,0.7-2.5,0.7c-1.7,0-3.1-0.6-4.2-1.8s-1.6-2.7-1.6-4.7c0-2,0.5-3.5,1.5-4.7c1-1.2,2.4-1.7,4.1-1.7c1,0,1.9,0.2,2.6,0.7
		c0.8,0.5,1.4,1.1,1.8,2V97H77.3z M75.3,103.1c0-1.4-0.4-2.4-1.1-3.3s-1.7-1.2-2.9-1.2c-1.2,0-2.2,0.4-2.9,1.1c-0.7,0.8-1,1.8-1,3.2
		c0,1.5,0.3,2.6,1,3.4c0.7,0.8,1.7,1.2,3,1.2c1.2,0,2.2-0.4,2.9-1.2S75.3,104.4,75.3,103.1z"/>
	<path class="st0" d="M92.7,97V109h-2v-2.2c-0.5,0.9-1.1,1.5-1.9,2c-0.8,0.5-1.6,0.7-2.5,0.7c-1.7,0-3.1-0.6-4.2-1.8
		c-1.1-1.2-1.6-2.8-1.6-4.7c0-2,0.5-3.6,1.5-4.7c1-1.2,2.4-1.8,4.1-1.8c1,0,1.9,0.2,2.6,0.7c0.7,0.5,1.3,1.1,1.8,2V97H92.7z
		 M90.7,103.1c0-1.4-0.4-2.5-1.1-3.3c-0.7-0.8-1.7-1.2-2.9-1.2c-1.2,0-2.2,0.4-2.9,1.1c-0.7,0.8-1,1.8-1,3.2c0,1.5,0.3,2.6,1,3.4
		c0.7,0.8,1.7,1.2,3,1.2c1.2,0,2.2-0.4,2.9-1.2C90.4,105.6,90.7,104.5,90.7,103.1z"/>
	<path class="st0" d="M108.1,88.6V109h-2v-2.2c-0.5,0.9-1.1,1.5-1.8,2c-0.8,0.5-1.6,0.7-2.5,0.7c-1.7,0-3.1-0.6-4.2-1.8
		c-1.1-1.2-1.6-2.8-1.6-4.7c0-2,0.5-3.6,1.6-4.7c1-1.2,2.4-1.8,4.1-1.8c1,0,1.9,0.2,2.6,0.7c0.7,0.5,1.3,1.1,1.8,2V88.6H108.1z
		 M106.1,103.1c0-1.3-0.4-2.4-1.1-3.2c-0.7-0.8-1.7-1.2-3-1.2s-2.2,0.4-2.9,1.1c-0.7,0.7-1,1.8-1,3.1c0,1.5,0.3,2.6,1,3.5
		c0.7,0.8,1.7,1.3,2.9,1.3c1.3,0,2.3-0.4,3-1.2C105.7,105.6,106.1,104.5,106.1,103.1z"/>
	<path class="st0" d="M123,103.3h-9.6v0.2c0,1.3,0.4,2.3,1.1,3.1c0.7,0.8,1.7,1.2,2.9,1.2c0.8,0,1.5-0.2,2.2-0.7
		c0.6-0.4,1.2-1.1,1.7-2l1.6,1.1c-0.6,1.1-1.4,1.9-2.3,2.5c-0.9,0.6-2,0.8-3.3,0.8c-1.8,0-3.3-0.6-4.5-1.8c-1.1-1.2-1.7-2.8-1.7-4.8
		c0-1.9,0.6-3.4,1.7-4.6s2.6-1.8,4.3-1.8c1.8,0,3.2,0.6,4.2,1.7c1,1.1,1.6,2.7,1.6,4.7V103.3z M120.8,101.7
		c-0.1-1.1-0.4-1.9-1.1-2.5c-0.6-0.6-1.5-0.9-2.6-0.9c-1,0-1.8,0.3-2.5,0.9c-0.7,0.6-1.1,1.4-1.2,2.4H120.8z"/>
	<path class="st0" d="M142.9,109v-7.1c0-1.2-0.2-2.1-0.7-2.7c-0.5-0.6-1.2-0.9-2.3-0.9c-0.6,0-1.1,0.1-1.5,0.3s-0.9,0.5-1.2,1
		c-0.2,0.3-0.4,0.7-0.5,1.1s-0.2,1.1-0.2,2.1v6.2h-2v-7.1c0-1.2-0.2-2.1-0.7-2.7c-0.5-0.6-1.2-0.9-2.3-0.9c-0.6,0-1.1,0.1-1.5,0.3
		c-0.5,0.2-0.9,0.5-1.2,1c-0.2,0.3-0.4,0.7-0.5,1.1c-0.1,0.4-0.2,1.1-0.2,2.1v6.2h-2V97h2v1.9c0.5-0.8,1.1-1.3,1.8-1.7
		c0.7-0.4,1.5-0.6,2.4-0.6c1,0,1.8,0.2,2.5,0.6c0.7,0.4,1.2,1,1.6,1.8c0.5-0.8,1.1-1.4,1.8-1.8c0.7-0.4,1.5-0.6,2.5-0.6
		c1.3,0,2.4,0.4,3.1,1.1c0.8,0.8,1.1,1.8,1.1,3.1v8.2H142.9z"/>
	<path class="st0" d="M160.3,97V109h-2v-2.2c-0.5,0.9-1.1,1.5-1.9,2s-1.6,0.7-2.5,0.7c-1.7,0-3.1-0.6-4.2-1.8
		c-1.1-1.2-1.6-2.8-1.6-4.7c0-2,0.5-3.6,1.5-4.7c1-1.2,2.4-1.8,4.1-1.8c1,0,1.9,0.2,2.6,0.7c0.7,0.5,1.3,1.1,1.8,2V97H160.3z
		 M158.3,103.1c0-1.4-0.4-2.5-1.1-3.3c-0.7-0.8-1.7-1.2-2.9-1.2c-1.2,0-2.2,0.4-2.9,1.1c-0.7,0.8-1,1.8-1,3.2c0,1.5,0.3,2.6,1,3.4
		c0.7,0.8,1.7,1.2,3,1.2c1.2,0,2.2-0.4,2.9-1.2C157.9,105.6,158.3,104.5,158.3,103.1z"/>
	<path class="st0" d="M163.1,107l1.8-1.2c0.3,0.6,0.8,1.1,1.3,1.4c0.5,0.3,1.1,0.5,1.8,0.5c0.7,0,1.2-0.2,1.6-0.5
		c0.4-0.3,0.6-0.8,0.6-1.3c0-0.4-0.1-0.8-0.4-1.1c-0.3-0.3-0.8-0.5-1.5-0.8L168,104c-2.9-1-4.4-2.3-4.4-3.8c0-1.1,0.4-1.9,1.2-2.6
		c0.8-0.7,1.8-1,3.1-1c1,0,1.9,0.2,2.7,0.6c0.7,0.4,1.3,1,1.6,1.8l-1.7,1c-0.2-0.6-0.6-1-1.1-1.3c-0.5-0.3-1-0.4-1.7-0.4
		c-0.6,0-1.1,0.2-1.5,0.5c-0.4,0.3-0.6,0.8-0.6,1.3c0,0.7,0.8,1.4,2.4,1.9c0.3,0.1,0.5,0.2,0.7,0.2c1.3,0.4,2.2,0.9,2.7,1.4
		c0.5,0.5,0.8,1.3,0.8,2.1c0,1.1-0.4,2.1-1.2,2.8s-1.9,1.1-3.2,1.1c-1.1,0-2.1-0.2-2.9-0.6C164.2,108.5,163.6,107.9,163.1,107z"/>
	<path class="st0" d="M186.1,103.3h-9.6v0.2c0,1.3,0.4,2.3,1.1,3.1c0.7,0.8,1.7,1.2,2.9,1.2c0.8,0,1.5-0.2,2.2-0.7
		c0.6-0.4,1.2-1.1,1.7-2l1.6,1.1c-0.6,1.1-1.4,1.9-2.3,2.5c-0.9,0.6-2,0.8-3.3,0.8c-1.8,0-3.3-0.6-4.5-1.8c-1.1-1.2-1.7-2.8-1.7-4.8
		c0-1.9,0.6-3.4,1.7-4.6s2.6-1.8,4.3-1.8c1.8,0,3.2,0.6,4.2,1.7c1,1.1,1.6,2.7,1.6,4.7V103.3z M183.9,101.7
		c-0.1-1.1-0.4-1.9-1.1-2.5c-0.6-0.6-1.5-0.9-2.6-0.9c-1,0-1.8,0.3-2.5,0.9c-0.7,0.6-1.1,1.4-1.2,2.4H183.9z"/>
	<path class="st0" d="M189.5,102h6.2v2.1h-6.2V102z"/>
	<path class="st0" d="M199.7,109V88.6h2.1V109H199.7z"/>
	<path class="st0" d="M210.1,109.8l-6-12.8h2.3l3.6,8.4l3.6-8.4h2.3L210.1,109.8z"/>
	<path class="st0" d="M218.4,109V88.6h2.1V109H218.4z"/>
	<path class="st0" d="M224.8,109V97h1.8v2.5c0.6-1,1.1-1.8,1.8-2.2c0.6-0.4,1.4-0.7,2.3-0.7c0.2,0,0.5,0,0.7,0.1
		c0.2,0,0.5,0.1,0.7,0.2l-0.7,1.9c-0.2-0.1-0.5-0.1-0.7-0.2c-0.2,0-0.4-0.1-0.6-0.1c-1.1,0-1.9,0.4-2.5,1.2c-0.5,0.8-0.8,2-0.8,3.6
		v5.9H224.8z"/>
</g>
<g>
	<path class="st1" d="M124.7,40.5h-18l-4.9-38c0,0,10.4-2.5,13.9-2.5s13.9,2.5,13.9,2.5L124.7,40.5z"/>
</g>
<g>
	<path class="st1" d="M29.3,78.7l-9.5-11.2H8v11.2H0.5V45.8h22.7c8,0,14.1,3.7,14.1,10.9c0,5.6-3.7,9.1-9.2,10.3l10.2,11.7H29.3z
		 M22.8,61.3c3.9,0,6.9-0.9,6.9-4.6s-2.9-4.6-6.9-4.6H7.9v9.2H22.8z"/>
	<path class="st1" d="M60.4,74.2c4.5,0,7.3-1.2,10-3.3l3.9,4.3c-3.6,3.2-8.3,4.6-14.2,4.6c-10.7,0-16.8-5.4-16.8-14
		c0-8.7,6.1-14,16.3-14c9.4,0,15.7,4.8,15.7,14c0,0.8,0,1.3-0.2,1.7H50.1C50.8,72,54.3,74.2,60.4,74.2z M50.5,62.7l17.7-0.1
		c-1.1-3.7-4.1-5.4-8.7-5.4C54.8,57.3,51.5,59.1,50.5,62.7z"/>
	<path class="st1" d="M98.1,78.7h-7.6l-13-25.9h7.9l9,19l9-19h7.7L98.1,78.7z"/>
	<path class="st1" d="M130.1,79.7c-10.2,0-16.4-5.4-16.4-14c0-8.6,6.3-14,16.4-14c7.4,0,12.3,3.2,14.4,7.1l-6.7,2.6
		c-1.5-2.9-4.4-3.9-7.7-3.9c-5.4,0-9.4,2.7-9.4,8.1c0,5.4,4,8.1,9.4,8.1c3.3,0,6.3-1.1,7.9-4l6.7,2.7
		C142.5,76.5,137.6,79.7,130.1,79.7z"/>
	<path class="st1" d="M149.1,65.7c0-8.7,6.3-14,16.6-14c10.2,0,16.6,5.3,16.6,14c0,8.6-6.3,14-16.6,14
		C155.4,79.7,149.1,74.3,149.1,65.7z M175.2,65.7c0-5.4-4-8-9.5-8c-5.5,0-9.5,2.6-9.5,8c0,5.4,4,8,9.5,8
		C171.2,73.8,175.2,71.1,175.2,65.7z"/>
	<path class="st1" d="M205.5,78.7h-7.6l-13-25.9h7.9l9,19l9-19h7.7L205.5,78.7z"/>
	<path class="st1" d="M223.4,46c0-2.2,1.8-3.7,4.4-3.7c2.5,0,4.3,1.5,4.3,3.7c0,2.1-1.8,3.7-4.3,3.7C225.2,49.7,223.4,48.1,223.4,46
		z M231.5,78.7h-7.3V52.8h7.3V78.7z"/>
</g>
<g>
	<path class="st2" d="M157.4,38.1l-15-2.5c-0.7-0.1-1.1-0.7-1-1.3L145,7.7c0.1-0.6,0.7-1,1.4-0.9c0,0,6.9,0.2,9.1,0.5
		c2.2,0.4,8.8,2.5,8.8,2.5c0.7,0.1,1.1,0.7,1,1.3l-6.5,26C158.7,37.8,158,38.2,157.4,38.1z"/>
</g>
<g>
	<path class="st2" d="M184.4,40.4l-11.1-3.2c-0.5-0.1-0.8-0.6-0.7-1l4.3-19.2c0.1-0.4,0.6-0.7,1.1-0.5c0,0,5.2,0.7,6.8,1.2
		c1.7,0.5,6.4,2.6,6.4,2.6c0.5,0.1,0.8,0.6,0.7,1l-6.5,18.6C185.3,40.2,184.9,40.5,184.4,40.4z"/>
</g>
<g>
	<path class="st2" d="M74.5,38.2l15-2.5c0.7-0.1,1.1-0.7,1-1.3L86.9,7.8c-0.1-0.6-0.7-1-1.4-0.9c0,0-6.9,0.2-9.1,0.5
		c-2.2,0.4-8.8,2.5-8.8,2.5c-0.7,0.1-1.1,0.7-1,1.3l6.5,26C73.2,37.9,73.9,38.3,74.5,38.2z"/>
</g>
<g>
	<path class="st2" d="M47.5,40.5l11.1-3.2c0.5-0.1,0.8-0.6,0.7-1L55,17c-0.1-0.4-0.6-0.7-1.1-0.5c0,0-5.2,0.7-6.8,1.2
		s-6.4,2.6-6.4,2.6c-0.5,0.1-0.8,0.6-0.7,1l6.5,18.6C46.5,40.4,47,40.6,47.5,40.5z"/>
</g>
<g>
	<path class="st0" d="M115.5,119.6c0-0.2,0.1-0.4,0.2-0.5s0.3-0.2,0.5-0.2c0.2,0,0.4,0.1,0.5,0.2s0.2,0.3,0.2,0.5
		c0,0.2-0.1,0.4-0.2,0.5s-0.3,0.2-0.5,0.2s-0.4-0.1-0.5-0.2S115.5,119.9,115.5,119.6z M115.7,128.4v-5.9h1v5.9H115.7z"/>
	<path class="st0" d="M118.9,128.4v-5.9h1v0.9c0.3-0.4,0.6-0.7,0.9-0.8s0.8-0.3,1.2-0.3c0.7,0,1.2,0.2,1.6,0.6s0.6,0.9,0.6,1.5v4h-1
		v-3.5c0-0.6-0.1-1-0.4-1.3c-0.3-0.3-0.6-0.4-1.2-0.4c-0.3,0-0.6,0.1-0.8,0.2c-0.2,0.1-0.5,0.3-0.6,0.5c-0.1,0.2-0.2,0.3-0.3,0.5
		c-0.1,0.2-0.1,0.5-0.1,1v3.1H118.9z"/>
	<path class="st0" d="M126.1,119.6c0-0.2,0.1-0.4,0.2-0.5s0.3-0.2,0.5-0.2c0.2,0,0.4,0.1,0.5,0.2s0.2,0.3,0.2,0.5
		c0,0.2-0.1,0.4-0.2,0.5s-0.3,0.2-0.5,0.2s-0.4-0.1-0.5-0.2S126.1,119.9,126.1,119.6z M126.3,131.3v-8.8h1v8.8H126.3z"/>
	<path class="st0" d="M134.8,125.6h-4.7v0.1c0,0.6,0.2,1.1,0.5,1.5c0.4,0.4,0.8,0.6,1.4,0.6c0.4,0,0.8-0.1,1.1-0.3s0.6-0.5,0.8-1
		l0.8,0.5c-0.3,0.5-0.7,0.9-1.1,1.2c-0.5,0.3-1,0.4-1.6,0.4c-0.9,0-1.6-0.3-2.2-0.9s-0.8-1.4-0.8-2.3c0-0.9,0.3-1.7,0.8-2.3
		c0.6-0.6,1.3-0.9,2.1-0.9c0.9,0,1.6,0.3,2.1,0.8c0.5,0.6,0.8,1.3,0.8,2.3V125.6z M133.7,124.8c0-0.5-0.2-0.9-0.5-1.2
		c-0.3-0.3-0.7-0.4-1.3-0.4c-0.5,0-0.9,0.1-1.2,0.4s-0.5,0.7-0.6,1.2H133.7z"/>
	<path class="st0" d="M140.8,127v1.2c-0.3,0.2-0.6,0.3-0.9,0.4c-0.3,0.1-0.7,0.1-1.1,0.1c-0.9,0-1.7-0.3-2.2-0.9
		c-0.6-0.6-0.8-1.3-0.8-2.3c0-0.9,0.3-1.7,0.9-2.3c0.6-0.6,1.3-0.9,2.2-0.9c0.3,0,0.6,0,1,0.1c0.3,0.1,0.6,0.2,0.9,0.3v1.1
		c-0.3-0.2-0.5-0.3-0.8-0.4c-0.3-0.1-0.6-0.1-0.8-0.1c-0.7,0-1.2,0.2-1.6,0.6c-0.4,0.4-0.6,1-0.6,1.7c0,0.6,0.2,1.1,0.6,1.5
		c0.4,0.4,0.9,0.6,1.5,0.6c0.3,0,0.6-0.1,0.9-0.2C140.2,127.4,140.5,127.2,140.8,127z"/>
	<path class="st0" d="M142.4,123.3h-1.1v-0.8h1.1v-2.4h1v2.4h1.1v0.8h-1.1v5.1h-1V123.3z"/>
	<path class="st0" d="M145.5,119.6c0-0.2,0.1-0.4,0.2-0.5s0.3-0.2,0.5-0.2c0.2,0,0.4,0.1,0.5,0.2s0.2,0.3,0.2,0.5
		c0,0.2-0.1,0.4-0.2,0.5c-0.1,0.1-0.3,0.2-0.5,0.2s-0.4-0.1-0.5-0.2S145.5,119.9,145.5,119.6z M145.7,128.4v-5.9h1v5.9H145.7z"/>
	<path class="st0" d="M148.4,125.5c0-0.4,0.1-0.8,0.2-1.2c0.2-0.4,0.4-0.7,0.7-1c0.3-0.3,0.7-0.5,1-0.7c0.4-0.2,0.8-0.2,1.2-0.2
		c0.4,0,0.8,0.1,1.2,0.2c0.4,0.2,0.7,0.4,1.1,0.7c0.3,0.3,0.5,0.6,0.7,1c0.2,0.4,0.2,0.8,0.2,1.2s-0.1,0.8-0.2,1.2
		c-0.2,0.4-0.4,0.7-0.7,1c-0.3,0.3-0.7,0.5-1.1,0.7s-0.8,0.2-1.2,0.2c-0.4,0-0.8-0.1-1.2-0.2s-0.7-0.4-1-0.7c-0.3-0.3-0.5-0.7-0.7-1
		C148.5,126.3,148.4,125.9,148.4,125.5z M149.5,125.5c0,0.6,0.2,1.2,0.6,1.6s0.9,0.7,1.5,0.7c0.6,0,1.1-0.2,1.5-0.7s0.6-1,0.6-1.6
		s-0.2-1.2-0.6-1.6c-0.4-0.4-0.9-0.7-1.5-0.7c-0.6,0-1.1,0.2-1.5,0.7C149.7,124.3,149.5,124.8,149.5,125.5z"/>
	<path class="st0" d="M156.4,128.4v-5.9h1v0.9c0.3-0.4,0.6-0.7,0.9-0.8s0.8-0.3,1.2-0.3c0.7,0,1.2,0.2,1.6,0.6s0.6,0.9,0.6,1.5v4h-1
		v-3.5c0-0.6-0.1-1-0.4-1.3c-0.3-0.3-0.6-0.4-1.2-0.4c-0.3,0-0.6,0.1-0.8,0.2c-0.2,0.1-0.5,0.3-0.6,0.5c-0.1,0.2-0.2,0.3-0.3,0.5
		c-0.1,0.2-0.1,0.5-0.1,1v3.1H156.4z"/>
	<path class="st0" d="M170.3,128.4V120h-1.9l0.6-1h2.4v9.4H170.3z"/>
	<path class="st0" d="M175.7,127.8c0-0.2,0.1-0.4,0.2-0.5c0.2-0.2,0.3-0.2,0.5-0.2c0.2,0,0.4,0.1,0.6,0.2c0.2,0.1,0.2,0.3,0.2,0.5
		c0,0.2-0.1,0.4-0.2,0.5s-0.3,0.2-0.6,0.2c-0.2,0-0.4-0.1-0.5-0.2C175.8,128.2,175.7,128,175.7,127.8z"/>
	<path class="st0" d="M181.1,123.1c0.2-0.2,0.5-0.3,0.7-0.3c0.2-0.1,0.5-0.1,0.8-0.1c0.9,0,1.5,0.3,2.1,0.8c0.5,0.5,0.8,1.2,0.8,2.1
		c0,1-0.3,1.7-0.9,2.3c-0.6,0.6-1.4,0.8-2.4,0.8c-0.9,0-1.6-0.3-2.1-0.9c-0.5-0.6-0.8-1.3-0.8-2.2c0-0.9,0.6-2.2,1.8-3.9l0.1-0.1
		l2.2-3.1l1,0.5L181.1,123.1z M180.4,125.7c0,0.6,0.2,1.1,0.5,1.5s0.8,0.6,1.4,0.6c0.6,0,1.1-0.2,1.4-0.6c0.4-0.4,0.5-0.9,0.5-1.5
		c0-0.6-0.2-1.2-0.5-1.5c-0.4-0.4-0.9-0.6-1.5-0.6c-0.6,0-1,0.2-1.4,0.6S180.4,125,180.4,125.7z"/>
	<path class="st0" d="M199.4,128.4v-3.5c0-0.6-0.1-1-0.4-1.3c-0.2-0.3-0.6-0.4-1.1-0.4c-0.3,0-0.5,0.1-0.8,0.2
		c-0.2,0.1-0.4,0.3-0.6,0.5c-0.1,0.2-0.2,0.3-0.3,0.5c-0.1,0.2-0.1,0.5-0.1,1v3.1h-1v-3.5c0-0.6-0.1-1-0.4-1.3
		c-0.2-0.3-0.6-0.4-1.1-0.4c-0.3,0-0.5,0.1-0.8,0.2c-0.2,0.1-0.4,0.3-0.6,0.5c-0.1,0.2-0.2,0.3-0.2,0.5c0,0.2-0.1,0.5-0.1,1v3.1h-1
		v-5.9h1v0.9c0.2-0.4,0.5-0.7,0.9-0.8s0.7-0.3,1.2-0.3c0.5,0,0.9,0.1,1.2,0.3s0.6,0.5,0.8,0.9c0.3-0.4,0.6-0.7,0.9-0.9
		c0.3-0.2,0.8-0.3,1.2-0.3c0.7,0,1.2,0.2,1.5,0.6s0.6,0.9,0.6,1.5v4H199.4z"/>
	<path class="st0" d="M208,122.5v5.8c0,0.6,0,1.1-0.1,1.4c-0.1,0.3-0.2,0.5-0.4,0.7c-0.3,0.3-0.6,0.5-1,0.7
		c-0.4,0.1-0.9,0.2-1.4,0.2c-0.9,0-1.6-0.2-2.1-0.6c-0.5-0.4-0.8-1-0.8-1.7h1.1v0.1c0,0.4,0.2,0.8,0.5,1c0.3,0.2,0.7,0.4,1.3,0.4
		c0.4,0,0.8-0.1,1-0.2c0.3-0.1,0.5-0.3,0.7-0.6c0.1-0.1,0.2-0.3,0.2-0.5s0.1-0.5,0.1-0.8v-0.5v-0.5c-0.2,0.4-0.5,0.7-0.9,1
		s-0.8,0.3-1.2,0.3c-0.9,0-1.5-0.3-2.1-0.9c-0.5-0.6-0.8-1.3-0.8-2.3c0-1,0.3-1.7,0.8-2.3c0.5-0.6,1.2-0.9,2-0.9
		c0.5,0,0.9,0.1,1.3,0.3s0.7,0.5,0.9,1v-1.1H208z M207,125.5c0-0.7-0.2-1.2-0.5-1.6c-0.4-0.4-0.8-0.6-1.4-0.6
		c-0.6,0-1.1,0.2-1.4,0.6c-0.3,0.4-0.5,0.9-0.5,1.6c0,0.7,0.2,1.3,0.5,1.7c0.3,0.4,0.8,0.6,1.5,0.6c0.6,0,1.1-0.2,1.4-0.6
		C206.8,126.7,207,126.2,207,125.5z"/>
	<path class="st0" d="M213.6,118.7h0.9l-4.7,10.9H209L213.6,118.7z"/>
	<path class="st0" d="M223.8,128.4v-3.5c0-0.6-0.1-1-0.4-1.3c-0.2-0.3-0.6-0.4-1.1-0.4c-0.3,0-0.5,0.1-0.8,0.2
		c-0.2,0.1-0.4,0.3-0.6,0.5c-0.1,0.2-0.2,0.3-0.3,0.5c-0.1,0.2-0.1,0.5-0.1,1v3.1h-1v-3.5c0-0.6-0.1-1-0.4-1.3
		c-0.2-0.3-0.6-0.4-1.1-0.4c-0.3,0-0.5,0.1-0.8,0.2c-0.2,0.1-0.4,0.3-0.6,0.5c-0.1,0.2-0.2,0.3-0.2,0.5c0,0.2-0.1,0.5-0.1,1v3.1h-1
		v-5.9h1v0.9c0.2-0.4,0.5-0.7,0.9-0.8s0.7-0.3,1.2-0.3c0.5,0,0.9,0.1,1.2,0.3s0.6,0.5,0.8,0.9c0.3-0.4,0.6-0.7,0.9-0.9
		c0.3-0.2,0.8-0.3,1.2-0.3c0.7,0,1.2,0.2,1.5,0.6s0.6,0.9,0.6,1.5v4H223.8z"/>
	<path class="st0" d="M226.9,128.4v-9.5h1.1v8.4h3.6v1.1H226.9z"/>
</g>
<g>
	<path class="st3" d="M246.5,46.6c0,2.1-1.7,3.8-3.9,3.8c-2.2,0-3.9-1.7-3.9-3.8c0-2.1,1.7-3.8,3.9-3.8
		C244.8,42.9,246.5,44.6,246.5,46.6z M239.7,46.6c0,1.7,1.2,3,2.9,3c1.7,0,2.9-1.3,2.9-3c0-1.7-1.2-3-2.9-3S239.7,45,239.7,46.6z
		 M242,48.6h-0.9v-3.8c0.3-0.1,0.8-0.1,1.4-0.1c0.7,0,1,0.1,1.3,0.3c0.2,0.2,0.4,0.5,0.4,0.8c0,0.4-0.3,0.7-0.8,0.9v0
		c0.4,0.1,0.6,0.4,0.7,0.9c0.1,0.6,0.2,0.8,0.3,0.9h-0.9c-0.1-0.1-0.2-0.5-0.3-0.9c-0.1-0.4-0.3-0.6-0.8-0.6H242V48.6z M242.1,46.5
		h0.4c0.5,0,0.9-0.2,0.9-0.6c0-0.3-0.3-0.6-0.8-0.6c-0.2,0-0.4,0-0.5,0V46.5z"/>
</g>
</svg>
